# xmcd
#
# Track frame offsets: 
#        150
#        17570
#        37056
#        54933
#        73010
#        88001
#        105066
#        125380
#        142491
#        155813
#        168797
#        173993
#        202446
#
# Disc length: 3036 seconds
#
# Revision: 0
# Processed by: cddbd v1.5.2PL0 Copyright (c) Steve Scherf et al.
# Submitted via: ExactAudioCopy v0.99pb3
#
DISCID=b80bda0d
DTITLE=Blanche - Little Amber Bottles
DYEAR=2007
DGENRE=Americana
TTITLE0=I'm Sure Of It
TTITLE1=Last Year's Leaves
TTITLE2=A Year From Now
TTITLE3=No Matter Where You Go
TTITLE4=What This Town Needs
TTITLE5=Child Of The Moon
TTITLE6=Little Amber Bottles
TTITLE7=The World I Used To Be Afraid Of
TTITLE8=O Death, Where Is Thy Sting?
TTITLE9=I Can't Sit Down
TTITLE10=(Exordium)
TTITLE11=The World's Largest Crucifix
TTITLE12=Scar Beneath The Skin [bonus]
EXTD=
EXTT0=
EXTT1=
EXTT2=
EXTT3=
EXTT4=
EXTT5=
EXTT6=
EXTT7=
EXTT8=
EXTT9=
EXTT10=
EXTT11=
EXTT12=
PLAYORDER=
